<svg id="Layer_1" data-name="Layer 1" xmlns="http://www.w3.org/2000/svg" viewBox="0 0 653.92 373.54"><path d="M81.49,341.48a31.44,31.44,0,0,0,.87-3.91,109.06,109.06,0,0,1,17.11-49.05,215.46,215.46,0,0,1,24.79-30.82,363,363,0,0,1,57.9-50.27c9.76-6.72,19.47-13.53,28.57-21.14,21-17.54,37.32-38.77,50.29-62.72,2.19-4,4.29-8.17,6.6-12.15a92.65,92.65,0,0,1,5.5-8.36c6.11-8.27,14.47-12.66,24.58-14a35.19,35.19,0,0,1,11.63.12,25.44,25.44,0,0,1,14.08,8.42c5.4,6.06,7.95,13.32,8.62,21.28,1.11,13.13-1.92,25.42-7.92,37-6.89,13.35-16.21,24.88-27.06,35.21a233.82,233.82,0,0,1-31,25q-8,5.38-16,10.79c-.65.44-1.29.91-1.9,1.34a8.5,8.5,0,0,0,7.22,6.43,16.91,16.91,0,0,0,8.17-1.23,52.44,52.44,0,0,0,11.81-6.66A153.27,153.27,0,0,0,297,207.41,138,138,0,0,0,314.67,185a98.09,98.09,0,0,1,7-10c9.41-11.69,21.67-19,36.14-22.57a19.34,19.34,0,0,1,19.78,6c2.48,2.67,4.61,5.67,6.92,8.5s4.58,5.91,7.14,8.62a17.62,17.62,0,0,0,12.92,5.84,36.43,36.43,0,0,0,8.24-1c5.08-1.15,9.7-3.5,14.21-6.06,15.45-8.77,28.51-20.2,38.5-35,3.65-5.4,7.21-10.86,10.79-16.32a193.8,193.8,0,0,1,14.55-19.78A39.86,39.86,0,0,1,512.28,89.8c13.83-3.29,27.6,2.35,34.36,14.09a34.72,34.72,0,0,1,4.49,15c.85,11.65-2,22.56-7,33a82,82,0,0,1-18.57,24.33,140.93,140.93,0,0,1-26.66,19.19c-9.34,5.29-18.89,10.2-28.27,15.41-3.95,2.2-7.8,4.62-11.53,7.18a39.1,39.1,0,0,0-5,4.73,2.48,2.48,0,0,0-.41,3c2.39,5.65,7.08,8.11,13.36,6.87a36.23,36.23,0,0,0,10-3.8,110.76,110.76,0,0,0,16-10.75c9.3-7.24,17.94-15.24,26.59-23.23q8.83-8.18,17.73-16.31c9.44-8.62,20.88-12.82,33.23-15a37.86,37.86,0,0,1,12.83-.1c11.14,1.86,17.86,8.38,20,19.51a51,51,0,0,1-.08,18,18.9,18.9,0,0,1-5.33,10.2c-1.55,1.6-3.19,3.11-4.81,4.64a26.31,26.31,0,0,0-5.7,7,27.33,27.33,0,0,0-2.16,5.26,10.86,10.86,0,0,0,5.06,12.74,18.47,18.47,0,0,0,15.37,2.05,41.37,41.37,0,0,0,7.05-2.87,132.3,132.3,0,0,0,27.54-18.74c2.84-2.52,5.69-5,8.47-7.63,3.2-3,6-6.33,9-9.53.43-.46.83-1,1.29-1.38,2.46-2.25,5-4.41,7.37-6.75,2.21-2.17,4.31-4.47,6.33-6.82,5.68-6.63,13.08-10.19,21.37-12.22a58.35,58.35,0,0,1,24.63-.8c6.79,1.26,11.81,5.2,14.09,12.12,2.16,6.57,2.35,13.26,1.6,20a10.75,10.75,0,0,1-1,3.38,90.87,90.87,0,0,1-12.19,18.75c-18.15,21.82-40.4,37.86-67.26,47.29a91.53,91.53,0,0,1-33,5.5c-18.59-.49-34.53-7.16-47.4-20.76-2.18-2.31-4.33-4.65-6.41-7.06a10,10,0,0,1-1.3-2.5c-1.3-2.87-3-3.55-5.7-2.07a18.87,18.87,0,0,0-4.27,3,56.14,56.14,0,0,1-21.62,12.72c-7.61,2.55-15.23,5.29-23.05,6.91-15.82,3.26-31.64,3.53-46.78-3.38-16.93-7.72-29.86-19.74-38.39-36.36-1.27-2.48-2.56-4.94-3.92-7.37a12.64,12.64,0,0,0-5.75-5.18c-6.52-3.14-13-6.39-19.48-9.56-2.5-1.21-5-2.37-7.6-3.42-3.37-1.38-3.48-1.38-5.61,1.67-1.78,2.53-3.41,5.17-5,7.85a136.76,136.76,0,0,1-13.26,19.22c-15.29,18.14-34.16,30.76-57.14,37a90.63,90.63,0,0,1-34,3q-31.68-3.51-51-28.92c-1.24-1.64-2.26-3.46-3.35-5.22s-2-3.27-2.92-4.91c-3.93-6.58-10.08-9.44-17.38-10.32a8.05,8.05,0,0,0-5.65,1.5,31.4,31.4,0,0,0-4.25,3.45c-11.51,11.69-24.06,22.24-36.34,33.08a139.47,139.47,0,0,0-15.75,15.94c-7.28,8.9-12.48,18.82-14.42,30.22-3.47,20.46,3.4,36.9,19.84,49.36,7.68,5.82,16.58,9,25.94,10.93a119,119,0,0,0,34.92,1.57c38-3.47,73.46-15.33,107.24-32.59,17.68-9,33.29-21.1,47.83-34.54,9.11-8.42,17.92-17.16,27.05-25.57,4.32-4,8.95-7.63,13.65-11.16a47.47,47.47,0,0,1,8.23-4.78,30.38,30.38,0,0,1,26.31-.45,69.1,69.1,0,0,1,8.82,4.71c6.47,4,9.68,10.09,10.56,17.53a45.37,45.37,0,0,1-1.54,17,65.21,65.21,0,0,1-8.65,19.8c-35,52.3-80.3,92.67-138.18,118.27a241.21,241.21,0,0,1-55.67,17.22,181.08,181.08,0,0,1-23.44,2.7c-1.18.05-2.35.29-3.52.44h-11c-1.09-.15-2.18-.33-3.28-.44-4.27-.39-8.57-.6-12.82-1.17a141.55,141.55,0,0,1-55.92-20c-15-9.25-28-20.62-38.34-35-10.74-15-17.39-31.51-19.09-49.94a26.8,26.8,0,0,0-.85-3.68Z" transform="translate(-81.49 -88.67)"/><path d="M735.4,312.85a5.72,5.72,0,0,0-.41,1.34c-.17,5.52-2.07,10.58-4.23,15.55a99.75,99.75,0,0,1-12.15,20.18,267.55,267.55,0,0,1-31.07,33.91c-20.64,19.36-42.69,36.92-66.78,51.86-10.5,6.51-21.71,11.62-33,16.61a34.41,34.41,0,0,1-14.31,3.28,20,20,0,0,1-11.67-3.6c-7.43-5.26-12.51-12.15-14.11-21.28a28.93,28.93,0,0,1,2.8-18.07,42.22,42.22,0,0,1,9.74-12.55q10.49-9.56,20.92-19.19c22.45-20.81,44.82-41.72,67.35-62.45,8.31-7.64,16.9-15,25.47-22.33,9.89-8.48,21.43-12.1,34.43-11.33,9.33.56,16.62,4.93,22.69,11.67,2.43,2.7,3.36,6.07,3.8,9.6.1.84.33,1.67.5,2.51Z" transform="translate(-81.49 -88.67)"/><path d="M465.53,364.57c-1.57-4.09-3.3-7.77-4.42-11.64-3.41-11.77-2-23.12,3.54-34a65.55,65.55,0,0,1,19.21-22.47A90,90,0,0,1,532.15,278c12.37-1,24.29.78,35.47,6.3a58.62,58.62,0,0,1,10.09,6.27c15.27,11.91,20.34,30.05,13.75,48.25a50.27,50.27,0,0,1-7.48,13.5,172.63,172.63,0,0,1-19.83,21.25c-23.63,21.85-49.34,40.83-77.86,55.87a149.13,149.13,0,0,1-32.22,13,56.85,56.85,0,0,1-18.15,2.13,40.6,40.6,0,0,1-7.28-1.16c-13.36-3.43-20.8-19.52-15.23-32a40.21,40.21,0,0,1,5.63-9.09,76.73,76.73,0,0,1,12.15-11.75c4-3.16,8.11-6.14,12.12-9.27,4.2-3.27,8.29-6.68,12.5-9.94,2.44-1.89,5-3.61,7.56-5.38C464.08,365.38,464.85,365,465.53,364.57Zm43.83-19.63a3.71,3.71,0,0,0,.85.22,14.6,14.6,0,0,0,1.85-.43,65.54,65.54,0,0,0,23.05-13A27,27,0,0,0,538,328.6a19,19,0,0,0,1.35-2.26,3.46,3.46,0,0,0-.86-.28,12.51,12.51,0,0,0-2.13.24,48.13,48.13,0,0,0-23.06,12.64,24,24,0,0,0-2.77,3.55A16.52,16.52,0,0,0,509.36,344.94Z" transform="translate(-81.49 -88.67)"/></svg>