<?xml version="1.0" encoding="utf-8"?>
<!-- Generator: Adobe Illustrator 25.0.0, SVG Export Plug-In . SVG Version: 6.00 Build 0)  -->
<svg version="1.1" id="Layer_1" xmlns="http://www.w3.org/2000/svg" xmlns:xlink="http://www.w3.org/1999/xlink" x="0px" y="0px"
	 viewBox="0 0 841.89 595.28" style="enable-background:new 0 0 841.89 595.28;" xml:space="preserve">
<style type="text/css">
	.st0{fill:#7F1518;}
</style>
<g>
	<path class="st0" d="M81.49,341.48c0.3-1.3,0.74-2.59,0.88-3.91c1.77-17.73,7.44-34.09,17.11-49.05
		c7.19-11.13,15.71-21.21,24.79-30.82c17.64-18.67,36.71-35.68,57.91-50.27c9.76-6.72,19.47-13.52,28.57-21.14
		c20.96-17.54,37.32-38.77,50.28-62.72c2.19-4.05,4.29-8.17,6.6-12.15c1.67-2.88,3.52-5.68,5.5-8.36
		c6.11-8.27,14.47-12.66,24.58-13.96c3.89-0.5,7.77-0.67,11.63,0.12c5.67,1.16,10.27,4.15,14.08,8.42
		c5.4,6.06,7.95,13.32,8.62,21.28c1.11,13.13-1.92,25.42-7.92,37.04c-6.9,13.35-16.22,24.88-27.06,35.21
		c-9.64,9.18-19.94,17.54-30.99,24.96c-5.35,3.59-10.69,7.19-16.03,10.79c-0.65,0.44-1.29,0.91-1.89,1.34
		c0.96,3.56,3.73,6,7.21,6.43c2.84,0.35,5.54-0.23,8.17-1.23c4.27-1.63,8.12-4.01,11.81-6.66c7.92-5.68,14.96-12.34,21.65-19.39
		c6.59-6.94,12.64-14.28,17.69-22.44c2.13-3.44,4.42-6.82,6.96-9.97c9.41-11.69,21.67-19.03,36.14-22.57
		c7.58-1.85,14.4,0.18,19.78,5.99c2.48,2.68,4.61,5.67,6.91,8.51c2.36,2.89,4.59,5.91,7.15,8.62c3.46,3.65,7.82,5.82,12.91,5.84
		c2.75,0.01,5.55-0.39,8.24-1c5.08-1.16,9.71-3.5,14.21-6.06c15.45-8.77,28.51-20.2,38.5-34.98c3.65-5.4,7.21-10.87,10.78-16.32
		c4.49-6.86,9.22-13.54,14.55-19.78c5.74-6.72,12.79-11.38,21.46-13.44c13.84-3.29,27.61,2.35,34.36,14.09
		c2.66,4.63,4.1,9.64,4.49,14.94c0.85,11.66-1.96,22.56-6.99,32.97c-4.53,9.36-10.98,17.28-18.56,24.32
		c-8.09,7.5-17.09,13.78-26.66,19.2c-9.34,5.28-18.89,10.2-28.27,15.41c-3.95,2.2-7.8,4.61-11.53,7.18c-1.87,1.29-3.37,3.11-5,4.73
		c-0.89,0.88-0.91,1.86-0.41,3.04c2.39,5.65,7.08,8.11,13.35,6.86c3.54-0.7,6.83-2.11,10-3.8c5.71-3.04,10.94-6.78,16.03-10.75
		c9.3-7.25,17.94-15.24,26.58-23.23c5.9-5.45,11.8-10.9,17.74-16.31c9.44-8.61,20.88-12.82,33.23-14.95
		c4.26-0.73,8.55-0.82,12.83-0.1c11.14,1.86,17.86,8.38,20,19.51c1.15,6,0.91,12.03-0.08,18.03c-0.66,3.96-2.55,7.34-5.33,10.2
		c-1.55,1.6-3.19,3.11-4.81,4.63c-2.21,2.08-4.3,4.29-5.7,7c-0.87,1.68-1.66,3.45-2.16,5.27c-1.42,5.21,0.44,9.92,5.06,12.74
		c4.79,2.93,9.99,3.63,15.37,2.05c2.42-0.71,4.8-1.72,7.05-2.87c9.97-5.08,19.16-11.34,27.54-18.74c2.85-2.51,5.69-5.05,8.48-7.63
		c3.2-2.96,6.01-6.33,8.99-9.53c0.43-0.46,0.83-0.96,1.29-1.38c2.46-2.25,5-4.41,7.37-6.75c2.21-2.18,4.31-4.47,6.32-6.82
		c5.68-6.63,13.08-10.19,21.38-12.21c8.15-1.99,16.44-2.32,24.63-0.8c6.78,1.26,11.81,5.2,14.08,12.12
		c2.16,6.57,2.35,13.26,1.61,20.04c-0.13,1.15-0.53,2.32-1.04,3.37c-3.25,6.77-7.39,13-12.18,18.76
		c-18.15,21.82-40.4,37.86-67.26,47.29c-10.66,3.74-21.66,5.8-32.99,5.5c-18.59-0.5-34.53-7.16-47.4-20.76
		c-2.19-2.31-4.34-4.65-6.42-7.06c-0.6-0.69-0.91-1.64-1.3-2.5c-1.3-2.87-2.95-3.55-5.7-2.07c-1.53,0.82-3.03,1.81-4.27,3.01
		c-6.19,6-13.56,10.01-21.62,12.71c-7.61,2.55-15.22,5.29-23.05,6.91c-15.82,3.26-31.64,3.53-46.78-3.37
		c-16.93-7.72-29.85-19.75-38.39-36.37c-1.27-2.47-2.56-4.94-3.92-7.36c-1.32-2.36-3.3-4-5.75-5.18c-6.51-3.14-12.97-6.4-19.48-9.56
		c-2.5-1.22-5.03-2.38-7.6-3.43c-3.37-1.38-3.47-1.38-5.61,1.67c-1.78,2.54-3.41,5.18-4.97,7.85c-3.94,6.74-8.22,13.23-13.26,19.22
		c-15.29,18.15-34.16,30.77-57.14,37.04c-11.15,3.04-22.49,4.31-34.01,3.04c-21.11-2.34-38.11-12.01-50.96-28.92
		c-1.25-1.64-2.26-3.46-3.35-5.21c-1-1.62-1.95-3.28-2.93-4.92c-3.93-6.57-10.08-9.44-17.37-10.31c-2.03-0.24-3.98,0.32-5.65,1.5
		c-1.49,1.05-2.97,2.16-4.25,3.45c-11.51,11.69-24.06,22.24-36.34,33.08c-5.61,4.95-10.99,10.14-15.74,15.94
		c-7.28,8.89-12.49,18.82-14.42,30.22c-3.47,20.46,3.4,36.9,19.84,49.36c7.68,5.82,16.58,9,25.95,10.93
		c11.55,2.38,23.23,2.64,34.91,1.58c37.98-3.47,73.47-15.33,107.24-32.59c17.68-9.04,33.29-21.11,47.83-34.55
		c9.11-8.42,17.93-17.16,27.05-25.56c4.32-3.98,8.96-7.63,13.65-11.17c2.52-1.9,5.37-3.41,8.23-4.78
		c8.67-4.15,17.51-4.28,26.31-0.45c3.05,1.33,5.99,2.96,8.82,4.71c6.48,4.01,9.68,10.09,10.56,17.53c0.68,5.78-0.07,11.43-1.54,17
		c-1.86,7.04-4.6,13.75-8.65,19.8c-35.03,52.3-80.3,92.67-138.18,118.27c-17.87,7.9-36.4,13.81-55.67,17.22
		c-7.76,1.37-15.56,2.35-23.44,2.7c-1.18,0.05-2.34,0.29-3.51,0.44c-3.66,0-7.32,0-10.98,0c-1.09-0.15-2.18-0.33-3.28-0.44
		c-4.27-0.4-8.57-0.6-12.82-1.18c-20.05-2.72-38.7-9.39-55.92-20.02c-14.98-9.25-28.04-20.62-38.34-34.98
		c-10.74-14.97-17.38-31.51-19.09-49.94c-0.11-1.24-0.56-2.45-0.85-3.68C81.49,348.48,81.49,344.98,81.49,341.48z"/>
	<path class="st0" d="M735.4,312.85c-0.14,0.45-0.4,0.89-0.41,1.34c-0.17,5.52-2.07,10.57-4.23,15.54
		c-3.15,7.26-7.4,13.87-12.15,20.18c-9.26,12.3-19.86,23.4-31.07,33.91c-20.64,19.36-42.69,36.92-66.78,51.86
		c-10.5,6.51-21.72,11.62-32.98,16.62c-4.53,2.01-9.26,3.31-14.31,3.27c-4.27-0.03-8.22-1.15-11.67-3.6
		c-7.43-5.26-12.51-12.16-14.11-21.28c-1.11-6.32,0-12.34,2.8-18.07c2.37-4.86,5.76-8.92,9.74-12.55
		c6.99-6.37,13.97-12.76,20.91-19.19c22.45-20.81,44.83-41.72,67.36-62.45c8.31-7.64,16.9-14.99,25.47-22.34
		c9.89-8.48,21.43-12.1,34.43-11.32c9.33,0.55,16.61,4.93,22.69,11.67c2.43,2.7,3.36,6.06,3.8,9.6c0.1,0.84,0.33,1.67,0.5,2.51
		C735.4,309.99,735.4,311.42,735.4,312.85z"/>
	<path class="st0" d="M465.53,364.57c-1.57-4.08-3.31-7.77-4.43-11.64c-3.41-11.77-1.99-23.12,3.54-33.99
		c4.59-9.03,11.21-16.38,19.21-22.47c14.28-10.87,30.37-17.09,48.28-18.51c12.37-0.98,24.29,0.78,35.47,6.29
		c3.54,1.75,6.98,3.85,10.09,6.28c15.26,11.91,20.34,30.05,13.74,48.25c-1.78,4.9-4.31,9.37-7.48,13.5
		c-5.93,7.72-12.7,14.66-19.83,21.25c-23.63,21.85-49.34,40.83-77.86,55.87c-10.28,5.42-20.91,10.04-32.21,12.96
		c-5.95,1.54-11.99,2.55-18.16,2.13c-2.44-0.17-4.91-0.55-7.28-1.16c-13.36-3.43-20.8-19.52-15.23-32.03
		c1.46-3.29,3.37-6.3,5.63-9.09c3.58-4.4,7.72-8.24,12.15-11.75c3.99-3.16,8.12-6.13,12.13-9.26c4.2-3.27,8.28-6.68,12.49-9.94
		c2.45-1.89,5.03-3.61,7.57-5.38C464.08,365.38,464.85,364.97,465.53,364.57z M509.36,344.94c0.56,0.15,0.72,0.24,0.85,0.22
		c0.62-0.12,1.25-0.23,1.85-0.42c8.54-2.81,16.28-7.05,23.05-12.99c1.07-0.93,1.99-2.05,2.89-3.15c0.53-0.65,0.87-1.44,1.35-2.26
		c-0.45-0.15-0.66-0.29-0.86-0.28c-0.71,0.05-1.44,0.07-2.12,0.24c-8.83,2.12-16.58,6.24-23.06,12.64
		c-1.06,1.05-1.92,2.32-2.77,3.55C510.05,343.18,509.79,344.01,509.36,344.94z"/>
</g>
</svg>
